<svg xmlns="http://www.w3.org/2000/svg" viewBox="0 0 448 512" role="img" aria-labelledby="title-whatsapp">
  <title id="title-whatsapp">WhatsApp</title>
  <path fill="#25D366" d="M380.9 97.4C339.4 51.5 283.7 25.1 223.9 25c-53.7-.1-105.7 15.6-150.9 44.4-44.5 28.5-79.6 67.8-100.2 113.8-21.7 48.5-27.1 101.4-16 153.2L0 448l96.7-31.3c23.6 13.5 49.3 22.3 77.1 26.2h0c60.3 7.8 122.1-12.7 166.5-54.6 44.5-41.9 66.8-98.1 63.6-154.2-.3-6.6-.1-13.2-0.4-19.8l-1-2.9 0.4-1.2h0C401.2 112.1 392.8 103.1 380.9 97.4zM223.9 434.3c-26.2 0-52.1-5.9-76.3-17.4l-5.6-3.3-56.818.4 18.8-55.4-3.6-5.9C85.3 331.4 75 291.2 75 249c0-84.3 68.5-152.8 152.8-152.8 41.1 0 79.7 16.1 108.1 44.4 28.4 28.4 44.4 67 44.4 108.1 0 84.3-68.5 152.8-152.8 152.8zM318.3 277.6c-2.4-1.2-14.4-7.1-16.6-7.9-2.2-.8-3.8-.8-5.4 1.2s-6.3 7.9-7.7 9.5c-1.4 1.6-2.8 1.8-5.2 0.6-2.4-1.2-10.3-3.8-19.6-12.1-7.2-6.5-12.1-14.5-13.5-16.9-1.4-2.4-.1-3.7 1.1-4.8 1-1.1 2.2-2.8 3.3-4.2 1.1-1.4 1.4-2.4.8-4.2-.7-1.8-5.4-13-7.4-17.8s-4.1-4-5.6-4.1c-1.4-.1-3 .1-4.6.1-1.6 0-4.2.6-6.3 3.1-2.2 2.5-8.4 8.2-8.4 20s8.6 23.2 9.8 24.8c1.2 1.6 17.1 26.2 41.4 36.5 5.8 2.5 10.3 4.1 13.8 5.2 6.1 2 11.6 1.7 16 1 4.8-.9 14.4-5.9 16.4-11.6.4-1.1 1.4-2.1 2.1-3.1 2-2.4 2-4.5 1.4-5.7z"/>
</svg>
